<svg xmlns="http://www.w3.org/2000/svg" width="78.853" height="68.459" viewBox="0 0 78.853 68.459"><defs><style>.a{fill:rgba(242,164,55,0.6);}.b{fill:#4869ef;}.c{fill:none;stroke:#4869ef;stroke-linecap:round;stroke-linejoin:round;stroke-width:4px;}</style></defs><g transform="translate(-23.711 -39.887)"><path class="a" d="M268.465,343.717l15.033,17.1V342.543" transform="translate(-200.884 -252.469)"/><path class="a" d="M89.4,91.463l-63.42-6.555-.273-32.7L95.563,41.887Zm0,0" transform="translate(7 5)"/><path class="b" d="M268.465,343.717l15.033,17.1V342.543" transform="translate(-207.884 -257.469)"/><path class="c" d="M89.4,91.463l-63.42-6.555-.273-32.7L95.563,41.887Zm0,0"/><g transform="translate(38.44 54.905)"><path class="b" d="M130.6,152.646c.006-.4.408-.639.809-.677l2.469-.235c1.236-.117,2.482.233,2.436,2.078a2.236,2.236,0,0,1-1.111,2.094c.752.245,1.267.687,1.235,1.966l-.007.268c-.051,2.007-1.159,2.76-2.533,2.8l-2.628.082c-.486.015-.782-.242-.778-.545Zm1.787,2.695,1.263-.089a.87.87,0,0,0,.714-.928c.009-.447-.215-.875-.68-.837l-1.268.1Zm1.123,3.929c.6-.026.976-.392.994-1.2l0-.2c.019-.858-.342-1.14-.949-1.1l-1.2.072-.043,2.481Zm0,0" transform="translate(-128.173 -148.955)"/><path class="b" d="M186.051,149.461l2.018-.137c.41-.028.629.346.613.776a.791.791,0,0,1-.672.828l-2.012.116-.074,2.225,3.614-.155c.415-.018.634.4.613.895-.018.427-.231.9-.686.913l-4.745.149c-.438.013-.867-.177-.856-.586l.24-8.259c.012-.423.463-.677.91-.72l4.849-.46c.465-.044.644.421.625.862-.021.509-.279.97-.7,1l-3.663.3Zm0,0" transform="translate(-173.877 -143.242)"/><path class="b" d="M241.871,147.834c.091-1.7-4.584-1.138-4.441-4.354.093-2.083,2.047-3.063,3.922-3.242.809-.077,3.07-.148,3,.989-.023.392-.351,1.213-1.035,1.268-.555.045-.818-.476-2.067-.371-1.066.089-1.517.534-1.539.97-.068,1.4,4.768.791,4.557,4.4-.119,2.039-1.787,3.185-3.952,3.251-1.906.058-3.435-.754-3.4-1.644.02-.46.477-1.158,1.021-1.185.678-.033,1.065.961,2.428.9.683-.029,1.461-.313,1.5-.983Zm0,0" transform="translate(-219.314 -139.096)"/><path class="b" d="M308.929,132.515c.586-.056.792.481.752.994a1.156,1.156,0,0,1-.918,1.168l-2.4.2-.585,8.105c-.034.47-.7.724-1.349.745s-1.264-.191-1.232-.653l.535-7.98-2.261.187c-.484.04-.727-.421-.692-.98.03-.486.288-1.039.822-1.09Zm0,0" transform="translate(-273.996 -132.511)"/><path class="b" d="M114.4,234.95a.607.607,0,0,1,.651-.562l2.353-.031a2.428,2.428,0,0,1,2.723,2.773v.061a2.549,2.549,0,0,1-2.921,2.728l-1.12-.029-.033,2.51c0,.37-.44.534-.872.513s-.852-.223-.848-.589Zm1.734,1.042-.032,2.491,1.123.018c.644.01,1.044-.365,1.058-1.179l0-.132c.014-.817-.375-1.2-1.022-1.2Zm0,0" transform="translate(-114.328 -219.727)"/><path class="b" d="M164.7,234.282a.6.6,0,0,1,.605-.591l2.607-.035c1.777-.024,3.2.617,3.12,2.716a2.557,2.557,0,0,1-1.678,2.555l1.493,2.823a.4.4,0,0,1,.058.228c-.019.489-.717.981-1.312.953a.7.7,0,0,1-.63-.389l-1.636-3.349-.827-.02-.082,2.948c-.011.389-.5.561-.974.538s-.94-.237-.931-.621Zm1.907,1.1-.065,2.314,1.247.017c.715.01,1.161-.274,1.191-1.157s-.4-1.177-1.12-1.176Zm0,0" transform="translate(-157.303 -219.127)"/><path class="b" d="M221.921,233.712c.017-.433.562-.623,1.1-.631s1.084.172,1.064.61L223.713,242c-.019.41-.564.59-1.1.564s-1.046-.253-1.029-.658Zm0,0" transform="translate(-206.18 -218.635)"/><path class="b" d="M256.668,234.305a1.284,1.284,0,0,0-1.424,1.359l-.193,3.559a1.168,1.168,0,0,0,1.273,1.38c1.2.044,1.326-.776,1.4-1.3.076-.5.6-.624,1.219-.609.838.021,1.216.223,1.163,1.049-.118,1.82-1.844,2.774-3.992,2.67-1.918-.093-3.439-1-3.327-3.252l.174-3.51c.114-2.305,1.756-3.189,3.72-3.215,2.2-.029,3.835.964,3.72,2.747-.054.838-.46,1.029-1.287,1.021-.65-.006-1.163-.163-1.164-.658C257.957,235.186,257.963,234.3,256.668,234.305Zm0,0" transform="translate(-232.895 -218.08)"/><path class="b" d="M320.991,235.661l2.537.031a.761.761,0,0,1,.738.9.862.862,0,0,1-.876.838l-2.526-.057-.178,2.4,4.539.165c.524.019.782.494.736,1.029a.9.9,0,0,1-.9.927l-5.95-.283c-.547-.026-1.076-.272-1.045-.713l.615-8.916c.032-.458.6-.695,1.166-.7l6.107-.081c.588-.008.795.514.754.993a1.011,1.011,0,0,1-.922,1.032l-4.614.008Zm0,0" transform="translate(-288.8 -217.023)"/></g></g></svg>