<svg xmlns="http://www.w3.org/2000/svg" width="66.604" height="67.704" viewBox="0 0 66.604 67.704"><defs><style>.a{fill:rgba(242,164,55,0.6);}.b{fill:#4869ef;}.c{fill:#f5be9a;}</style></defs><g transform="translate(41.562 54)"><path class="a" d="M70.042,102.87a5.865,5.865,0,0,0-5.859-5.859H53.561a18.613,18.613,0,0,0,2.52-9.671v-.627h0a7.9,7.9,0,0,0-7.778-7.9h-.06a4.014,4.014,0,0,0-3.955,3.611c-.791,9.553-10,14.476-16.154,17.471v-.989a1.87,1.87,0,0,0-1.87-1.87H10.308a1.87,1.87,0,0,0-1.87,1.87v31.912a1.87,1.87,0,0,0,1.87,1.87H22.275a5.864,5.864,0,0,0,5.242-3.246c6.66,2.893,12.445,3.27,19.089,3.27,1.135,0,2.3-.011,3.49-.022,1.32-.012,2.685-.025,4.116-.025h5.912a5.857,5.857,0,0,0,5.044-8.836,5.854,5.854,0,0,0,1.994-7.978,5.852,5.852,0,0,0,1.271-8.952A5.838,5.838,0,0,0,70.042,102.87ZM24.394,126.828a2.121,2.121,0,0,1-2.119,2.119H20.156v-6.108a1.87,1.87,0,1,0-3.74,0v6.108H12.178V100.775H24.394v26.053Z" transform="translate(-45 -119.006)"/><g transform="translate(-41.562 -44.194)"><path class="b" d="M70.042,102.87a5.865,5.865,0,0,0-5.859-5.859H53.561a18.613,18.613,0,0,0,2.52-9.671v-.627h0a7.9,7.9,0,0,0-7.778-7.9h-.06a4.014,4.014,0,0,0-3.955,3.611c-.791,9.553-10,14.476-16.154,17.471v-.989a1.87,1.87,0,0,0-1.87-1.87H10.308a1.87,1.87,0,0,0-1.87,1.87v31.912a1.87,1.87,0,0,0,1.87,1.87H22.275a5.864,5.864,0,0,0,5.242-3.246c6.66,2.893,12.445,3.27,19.089,3.27,1.135,0,2.3-.011,3.49-.022,1.32-.012,2.685-.025,4.116-.025h5.912a5.857,5.857,0,0,0,5.044-8.836,5.854,5.854,0,0,0,1.994-7.978,5.852,5.852,0,0,0,1.271-8.952A5.838,5.838,0,0,0,70.042,102.87ZM24.394,126.828a2.121,2.121,0,0,1-2.119,2.119H20.156v-6.108a1.87,1.87,0,1,0-3.74,0v6.108H12.178V100.775H24.394v26.053Zm35.8-18.1h3.917a2.119,2.119,0,1,1,0,4.238H60.195a1.87,1.87,0,1,0,0,3.74h1.923a2.119,2.119,0,0,1,0,4.238H60.123a1.87,1.87,0,0,0,0,3.74,2.119,2.119,0,0,1,0,4.238H54.211c-1.449,0-2.822.013-4.151.026-8.335.079-14.459.137-21.9-3.319V104.036h0l.6-.289a52.841,52.841,0,0,0,11.53-6.964c4.686-3.98,7.286-8.707,7.729-14.051a.277.277,0,0,1,.228-.18h0a4.181,4.181,0,0,1,4.1,4.163v.626c0,3.887-1.014,6.346-3.134,9.671H46.233a1.87,1.87,0,1,0,0,3.74h17.95a2.119,2.119,0,1,1,0,4.238H60.195a1.87,1.87,0,0,0,0,3.74Z" transform="translate(-8.438 -78.812)"/></g><g transform="translate(10.295 -40.181)"><path class="c" d="M431.078,111.062h-3.989a1.87,1.87,0,0,0,0,3.74h3.989a1.87,1.87,0,1,0,0-3.74Z" transform="translate(-425.219 -111.062)"/></g><g transform="translate(-17.628 -40.181)"><path class="c" d="M206.658,111.062h-3.989a1.87,1.87,0,0,0,0,3.74h3.989a1.87,1.87,0,0,0,0-3.74Z" transform="translate(-200.799 -111.062)"/></g><g transform="translate(-9.65 -54)"><path class="c" d="M270.4,4.39,268.406.936a1.87,1.87,0,0,0-3.238,1.87l1.994,3.455A1.87,1.87,0,0,0,270.4,4.39Z" transform="translate(-264.917 0)"/></g><g transform="translate(4.311 -54)"><path class="c" d="M381.926.251a1.869,1.869,0,0,0-2.554.684L377.377,4.39a1.87,1.87,0,1,0,3.238,1.87l1.995-3.455A1.87,1.87,0,0,0,381.926.251Z" transform="translate(-377.126 0)"/></g></g></svg>