<svg xmlns="http://www.w3.org/2000/svg" width="69.603" height="69.603" viewBox="0 0 69.603 69.603"><defs><style>.a{fill:#78b9eb;}.b{fill:#f7c887;}.c{fill:#4869ef;}.d{fill:rgba(242,164,55,0.6);}</style></defs><g transform="translate(20.881 37.2)"><path class="a" d="M224.512,299.46c.067.086.132.174.2.263C224.644,299.634,224.579,299.546,224.512,299.46Z" transform="translate(-214.872 -295.951)"/><path class="a" d="M219.255,293.393c.048.049.089.1.136.151C219.344,293.494,219.3,293.442,219.255,293.393Z" transform="translate(-210.33 -290.709)"/><path class="a" d="M229.4,306.654c.042.071.088.139.129.211C229.49,306.793,229.444,306.728,229.4,306.654Z" transform="translate(-219.097 -302.167)"/><path class="a" d="M233.813,315.418c.031.078.057.159.087.232C233.87,315.577,233.844,315.5,233.813,315.418Z" transform="translate(-222.909 -309.74)"/><path class="a" d="M211.738,286.882c.073.056.15.109.222.166C211.888,286.99,211.811,286.938,211.738,286.882Z" transform="translate(-203.835 -285.083)"/><path class="a" d="M204.655,282.18c.094.053.186.116.278.168C204.841,282.291,204.749,282.234,204.655,282.18Z" transform="translate(-197.714 -281.02)"/><path class="a" d="M209.2,363.861a12.9,12.9,0,0,0,1.921-1.478,2.6,2.6,0,0,0,.426-.522,11.464,11.464,0,0,0,1.392-3.317A9.28,9.28,0,0,1,209.2,363.861Z" transform="translate(-201.637 -347.004)"/><path class="a" d="M179.123,273.647c.11.013.218.033.326.05C179.341,273.684,179.233,273.66,179.123,273.647Z" transform="translate(-175.653 -273.647)"/><path class="a" d="M197.453,278.528c.041.017.078.039.116.057C197.531,278.567,197.493,278.545,197.453,278.528Z" transform="translate(-191.491 -277.864)"/><path class="a" d="M236.433,323.234c.03.109.058.218.085.328C236.491,323.452,236.463,323.343,236.433,323.234Z" transform="translate(-225.172 -316.493)"/><path class="a" d="M165.411,409.283c-.263,0-.52-.027-.777-.05C164.891,409.254,165.148,409.283,165.411,409.283Z" transform="translate(-163.134 -390.801)"/><path class="a" d="M187.053,407.313l-.139.036Z" transform="translate(-182.385 -389.142)"/><path class="a" d="M238.285,332.4c.009.068.023.135.031.2C238.308,332.534,238.294,332.467,238.285,332.4Z" transform="translate(-226.773 -324.412)"/><path class="a" d="M154.717,407.678a10.145,10.145,0,0,1-1.117-.211A10.145,10.145,0,0,0,154.717,407.678Z" transform="translate(-153.6 -389.275)"/><path class="a" d="M178.495,408.969c-.053.007-.1.017-.157.023C178.39,408.986,178.442,408.976,178.495,408.969Z" transform="translate(-174.975 -390.573)"/><path class="a" d="M204.87,398.4c-.165.108-.334.209-.506.307C204.539,398.619,204.7,398.508,204.87,398.4Z" transform="translate(-197.463 -381.444)"/><path class="a" d="M238.786,342.349c0,.1-.01.2-.015.3C238.776,342.549,238.785,342.443,238.786,342.349Z" transform="translate(-227.193 -333.009)"/><path class="a" d="M237.767,351.053c-.02.137-.037.275-.063.409C237.728,351.326,237.748,351.19,237.767,351.053Z" transform="translate(-226.271 -340.53)"/><path class="a" d="M187.631,275.277c.1.026.2.048.3.077C187.832,275.325,187.731,275.3,187.631,275.277Z" transform="translate(-183.005 -275.055)"/></g><path class="b" d="M10.853,205.879h1.276a2.308,2.308,0,0,1,2.16,1.5q.2.522.428,1.027A2.311,2.311,0,0,1,14.253,211l-.906.915a2.321,2.321,0,0,0,0,3.278l3.278,3.278a2.321,2.321,0,0,0,3.278,0l.911-.907a2.311,2.311,0,0,1,2.594-.464q.5.231,1.027.428a2.309,2.309,0,0,1,1.5,2.159v1.276a2.32,2.32,0,0,0,2.32,2.32h4.64a2.32,2.32,0,0,0,2.32-2.32v-1.276a2.308,2.308,0,0,1,1.5-2.16q.522-.2,1.027-.428a2.311,2.311,0,0,1,2.594.464l.911.907a2.321,2.321,0,0,0,3.278,0l3.278-3.278a2.321,2.321,0,0,0,0-3.278L46.891,211a2.311,2.311,0,0,1-.464-2.594q.231-.5.428-1.027a2.309,2.309,0,0,1,2.164-1.5H50.3a2.319,2.319,0,0,0,2.32-2.32v-4.64a2.32,2.32,0,0,0-2.32-2.32H49.019a2.308,2.308,0,0,1-2.16-1.5q-.2-.522-.428-1.027a2.309,2.309,0,0,1,.464-2.594l.907-.911a2.321,2.321,0,0,0,0-3.278l-3.279-3.278a2.321,2.321,0,0,0-3.278,0l-.911.907a2.311,2.311,0,0,1-2.594.464q-.5-.231-1.027-.428a2.309,2.309,0,0,1-1.5-2.164v-1.276a2.32,2.32,0,0,0-2.32-2.32h-4.64a2.32,2.32,0,0,0-2.32,2.32v1.276a2.308,2.308,0,0,1-1.5,2.16q-.522.2-1.027.428a2.311,2.311,0,0,1-2.594-.464l-.915-.906a2.321,2.321,0,0,0-3.278,0l-3.274,3.281a2.321,2.321,0,0,0,0,3.278l.907.911a2.309,2.309,0,0,1,.464,2.594q-.231.5-.428,1.027a2.308,2.308,0,0,1-2.164,1.5H10.853a2.32,2.32,0,0,0-2.32,2.32v4.64A2.32,2.32,0,0,0,10.853,205.879Zm17.4-13.631a9.541,9.541,0,0,1,2.32-.29,9.3,9.3,0,0,1,1.15.079c.11.013.218.032.326.05.282.044.558.1.831.172.1.026.2.048.3.077a9.048,9.048,0,0,1,1.036.365c.041.017.078.039.116.057a9.257,9.257,0,0,1,.862.44c.094.055.186.116.278.168.232.147.464.305.684.471.073.056.15.108.222.166a9.772,9.772,0,0,1,.8.719c.048.049.089.1.136.151q.306.322.58.674c.067.086.132.174.2.263a7.927,7.927,0,0,1,.464.715c.042.071.088.139.129.211a9.3,9.3,0,0,1,.471.98c.031.078.057.158.087.232.1.27.193.545.269.826.03.109.058.218.085.328q.106.454.167.918c.009.068.023.135.031.2a9.3,9.3,0,0,1,.06,1.016.92.92,0,0,1-.007.138c0,.1-.01.2-.015.3-.014.3-.041.593-.082.884-.019.137-.038.273-.063.409-.039.208-.091.409-.143.613a11.466,11.466,0,0,1-1.392,3.317,2.6,2.6,0,0,1-.426.522,12.891,12.891,0,0,1-1.915,1.474l-.151.1c-.168.1-.336.215-.506.307a9.24,9.24,0,0,1-2.233.9l-.139.036a9.316,9.316,0,0,1-1.009.189c-.052.007-.1.017-.157.023a9.226,9.226,0,0,1-1.043.066h-.043c-.263,0-.52-.027-.777-.05-.126-.012-.257-.01-.383-.027a10.149,10.149,0,0,1-1.117-.213,9.286,9.286,0,0,1,0-17.981Z" transform="translate(-8.373 -154.837)"/><g transform="translate(21.998 37.122)"><path class="a" d="M230.349,308.207a9.3,9.3,0,0,1,.471.98A9.282,9.282,0,0,0,230.349,308.207Z" transform="translate(-221.033 -303.43)"/><path class="a" d="M234.453,317.158c.1.27.193.545.269.826C234.646,317.7,234.555,317.428,234.453,317.158Z" transform="translate(-224.579 -311.164)"/><path class="a" d="M238.572,334.9a9.535,9.535,0,0,0-.057-1.012,9.275,9.275,0,0,1,.05,1.15A.923.923,0,0,0,238.572,334.9Z" transform="translate(-228.089 -325.623)"/><path class="a" d="M237.056,325.649q.106.454.167.918Q237.162,326.1,237.056,325.649Z" transform="translate(-226.828 -318.501)"/><path class="a" d="M181.521,274.014c.282.044.558.1.831.172C182.079,274.117,181.8,274.058,181.521,274.014Z" transform="translate(-178.843 -273.885)"/><path class="a" d="M170.667,273.067a9.31,9.31,0,0,1,1.15.079A9.311,9.311,0,0,0,170.667,273.067Z" transform="translate(-169.464 -273.067)"/><path class="a" d="M198.315,278.946a8.965,8.965,0,0,1,.862.44A9.271,9.271,0,0,0,198.315,278.946Z" transform="translate(-193.353 -278.147)"/><path class="a" d="M189.833,275.84a9.046,9.046,0,0,1,1.036.365A9.046,9.046,0,0,0,189.833,275.84Z" transform="translate(-186.025 -275.463)"/><path class="a" d="M225.963,301.4a7.923,7.923,0,0,1,.464.715A8.283,8.283,0,0,0,225.963,301.4Z" transform="translate(-217.243 -297.546)"/><path class="a" d="M220.254,294.5q.3.322.58.674Q220.561,294.825,220.254,294.5Z" transform="translate(-212.31 -291.588)"/><path class="a" d="M206.7,283.418c.232.147.464.305.684.471C207.166,283.723,206.938,283.565,206.7,283.418Z" transform="translate(-200.601 -282.011)"/><path class="a" d="M213.333,288.1a9.206,9.206,0,0,1,.8.719A9.8,9.8,0,0,0,213.333,288.1Z" transform="translate(-206.33 -286.058)"/><path class="a" d="M190.171,400.666a9.942,9.942,0,0,1-2.233.9A9.239,9.239,0,0,0,190.171,400.666Z" transform="translate(-184.387 -383.32)"/><path class="a" d="M180.465,407.578a9.309,9.309,0,0,1-1.009.189A9.338,9.338,0,0,0,180.465,407.578Z" transform="translate(-177.058 -389.292)"/><path class="a" d="M170.4,409.2a9.245,9.245,0,0,0,1.044-.063,9.2,9.2,0,0,1-1.086.06Z" transform="translate(-169.199 -390.641)"/><path class="a" d="M162.2,409.047c-.126-.012-.257-.01-.383-.027C161.943,409.036,162.074,409.035,162.2,409.047Z" transform="translate(-161.818 -390.538)"/><path class="a" d="M238.247,344.55c-.013.292-.042.587-.082.884C238.207,345.143,238.234,344.848,238.247,344.55Z" transform="translate(-227.786 -334.832)"/><path class="a" d="M208.237,397.653c-.05.032-.1.067-.151.1Z" transform="translate(-201.796 -380.716)"/><path class="a" d="M236.8,354.065c-.037.2-.093.408-.143.613C236.707,354.474,236.758,354.273,236.8,354.065Z" transform="translate(-226.481 -343.054)"/></g><g transform="translate(0 0)"><path class="c" d="M42.922,188.068H41.646a1.14,1.14,0,0,1-1.074-.749c-.142-.371-.294-.734-.457-1.094a1.145,1.145,0,0,1,.232-1.295l.909-.911a3.488,3.488,0,0,0-.006-4.917l-3.278-3.278a3.488,3.488,0,0,0-4.919,0l-.909.908a1.149,1.149,0,0,1-1.295.232c-.36-.164-.723-.316-1.1-.464A1.141,1.141,0,0,1,29,175.423v-1.276a3.48,3.48,0,0,0-3.48-3.48h-4.64a3.48,3.48,0,0,0-3.48,3.48v1.276a1.14,1.14,0,0,1-.749,1.074c-.371.142-.734.294-1.094.457a1.149,1.149,0,0,1-1.295-.232l-.911-.909a3.489,3.489,0,0,0-4.917,0L5.156,179.1a3.488,3.488,0,0,0,0,4.919l.908.909a1.145,1.145,0,0,1,.232,1.295c-.164.36-.316.723-.458,1.1a1.14,1.14,0,0,1-1.082.748H3.48A3.48,3.48,0,0,0,0,191.548v4.64a3.48,3.48,0,0,0,3.48,3.48H4.756a1.14,1.14,0,0,1,1.074.749c.142.371.294.734.457,1.094a1.145,1.145,0,0,1-.232,1.295l-.909.911a3.489,3.489,0,0,0,0,4.917l3.278,3.278a3.488,3.488,0,0,0,4.919,0l.909-.908a1.149,1.149,0,0,1,1.295-.232c.36.164.723.316,1.1.464a1.139,1.139,0,0,1,.759,1.077v1.276a3.48,3.48,0,0,0,3.48,3.48h4.64a3.48,3.48,0,0,0,3.48-3.48v-1.276a1.14,1.14,0,0,1,.749-1.074c.371-.142.734-.294,1.094-.457a1.149,1.149,0,0,1,1.295.232l.911.909a3.49,3.49,0,0,0,4.917-.006l3.278-3.278a3.488,3.488,0,0,0,0-4.919l-.908-.909a1.145,1.145,0,0,1-.232-1.295c.164-.36.316-.723.464-1.1a1.141,1.141,0,0,1,1.077-.753h1.276a3.48,3.48,0,0,0,3.48-3.48v-4.64A3.48,3.48,0,0,0,42.922,188.068Zm1.16,8.12a1.16,1.16,0,0,1-1.16,1.16H41.646a3.492,3.492,0,0,0-3.248,2.243q-.185.487-.4.959a3.49,3.49,0,0,0,.7,3.893l.907.908a1.16,1.16,0,0,1,0,1.64h0l-3.278,3.278a1.161,1.161,0,0,1-1.64,0l-.909-.908a3.488,3.488,0,0,0-3.893-.7c-.314.143-.635.276-.957.4a3.491,3.491,0,0,0-2.242,3.246v1.276a1.16,1.16,0,0,1-1.16,1.16h-4.64a1.16,1.16,0,0,1-1.16-1.16v-1.276a3.492,3.492,0,0,0-2.243-3.248q-.487-.185-.959-.4a3.492,3.492,0,0,0-3.893.7l-.908.907a1.16,1.16,0,0,1-1.64,0h0L6.8,206.994a1.161,1.161,0,0,1,0-1.64l.908-.909a3.49,3.49,0,0,0,.7-3.893c-.143-.314-.276-.635-.4-.957a3.49,3.49,0,0,0-3.246-2.246H3.48a1.16,1.16,0,0,1-1.16-1.16v-4.64a1.16,1.16,0,0,1,1.16-1.16H4.756A3.492,3.492,0,0,0,8,188.144q.185-.487.4-.959a3.49,3.49,0,0,0-.7-3.893l-.912-.908a1.16,1.16,0,0,1,0-1.64h0l3.278-3.278a1.161,1.161,0,0,1,1.64,0l.909.908a3.488,3.488,0,0,0,3.893.7c.314-.143.635-.276.957-.4a3.491,3.491,0,0,0,2.247-3.246v-1.276a1.16,1.16,0,0,1,1.16-1.16h4.64a1.16,1.16,0,0,1,1.16,1.16v1.276a3.492,3.492,0,0,0,2.243,3.248q.487.185.959.4a3.488,3.488,0,0,0,3.893-.7l.908-.907a1.167,1.167,0,0,1,1.642,0l3.278,3.278a1.161,1.161,0,0,1,0,1.64l-.908.909a3.49,3.49,0,0,0-.7,3.893c.143.314.276.635.4.957a3.491,3.491,0,0,0,3.246,2.242h1.276a1.16,1.16,0,0,1,1.16,1.16v4.64Z" transform="translate(0 -147.466)"/><path class="c" d="M114.684,274.51c-.012-.278-.031-.556-.065-.832-.037-.3-.081-.592-.143-.88-.041-.189-.094-.376-.145-.564q-.1-.358-.219-.707c-.057-.161-.116-.321-.176-.48a10.4,10.4,0,0,0-.512-1.086c-.015-.027-.024-.056-.039-.082a10.24,10.24,0,0,0-1.044-1.521c-.034-.042-.072-.081-.107-.122-.16-.189-.325-.372-.5-.548-.091-.094-.186-.182-.281-.273-.116-.108-.232-.215-.348-.317q-.211-.183-.43-.355l-.19-.142a10.366,10.366,0,0,0-6.22-2.069c-.116,0-.232.017-.348.022-.247.007-.5.021-.745.046-.131.014-.263.029-.394.048a10.572,10.572,0,0,0-1.124.21,10.446,10.446,0,0,0,.008,20.23.268.268,0,0,1,.058.01,11.057,11.057,0,0,0,1.216.232c.27.034.541.041.812.053.181.009.348.036.537.036.331,0,.674-.022,1.024-.057a1.146,1.146,0,0,0,.116-.015c.282-.031.567-.073.858-.131.116-.022.224-.051.335-.077.2-.048.407-.1.616-.159.162-.049.32-.106.479-.161s.324-.116.488-.179.3-.135.452-.2c.195-.089.389-.178.58-.282h.007a13.755,13.755,0,0,0,2.973-2.147,3.665,3.665,0,0,0,.622-.761,12.377,12.377,0,0,0,1.747-4.768c.032-.224.061-.448.079-.676.016-.21.028-.419.032-.628,0-.066.009-.129.009-.195C114.707,274.819,114.691,274.668,114.684,274.51Zm-12.455-7.4a8.384,8.384,0,0,1,2.038-.255,8.1,8.1,0,0,1,.992.067c.088.01.175.027.262.039.251.039.5.089.744.152.08.021.16.039.239.061a8.153,8.153,0,0,1,1.769.745c.089.052.176.107.265.161.183.116.361.232.536.364.094.068.189.136.28.209a8.574,8.574,0,0,1,.653.58c.082.083.158.175.238.262.133.145.263.294.387.45.086.108.168.219.249.332.116.167.232.341.336.517l.175.289a7.861,7.861,0,0,1,.4.85c.046.116.086.232.128.348.075.213.14.429.2.647.029.116.061.219.086.332a8.209,8.209,0,0,1,.147.95c.007.085.007.17.013.255.016.267.021.535.01.8,0,.1-.008.193-.014.288-.021.281-.057.561-.1.843a8.14,8.14,0,0,1-4.076,5.684c-.144.075-.285.146-.427.211l-.1.046a8.38,8.38,0,0,1-2.116.64c-.051.008-.1.017-.155.024-.145.021-.288.038-.429.051-.187.016-.375.026-.566.029h-.242a8.119,8.119,0,0,1-.821-.051l-.139-.016a8.462,8.462,0,0,1-.948-.179,8.12,8.12,0,0,1-.008-15.731Z" transform="translate(-81.066 -228.572)"/><path class="d" d="M146.548,24.361H142.9a1.133,1.133,0,0,1-1.081-.761,24.052,24.052,0,0,0-1.3-3.145,1.136,1.136,0,0,1,.223-1.31l2.587-2.59a3.481,3.481,0,0,0,0-4.92l-4.933-4.924a3.481,3.481,0,0,0-4.92,0L130.888,9.3a1.136,1.136,0,0,1-1.309.224,24.034,24.034,0,0,0-3.146-1.31,1.132,1.132,0,0,1-.766-1.081V3.48A3.48,3.48,0,0,0,122.187,0h-6.96a3.48,3.48,0,0,0-3.48,3.48V7.128a1.133,1.133,0,0,1-.761,1.081,24.235,24.235,0,0,0-3.145,1.309,1.134,1.134,0,0,1-1.31-.223l-2.59-2.587a3.488,3.488,0,0,0-4.92,0L94.1,11.632a3.48,3.48,0,0,0,0,4.921l3.8,3.811a1.16,1.16,0,0,0,1.643-1.638l-3.806-3.81a1.161,1.161,0,0,1,0-1.64l4.923-4.923a1.161,1.161,0,0,1,1.64,0l2.591,2.587a3.449,3.449,0,0,0,3.986.654,21.873,21.873,0,0,1,2.843-1.182,3.451,3.451,0,0,0,2.344-3.283V3.48a1.16,1.16,0,0,1,1.16-1.16h6.96a1.16,1.16,0,0,1,1.16,1.16V7.128a3.45,3.45,0,0,0,2.344,3.282,21.9,21.9,0,0,1,2.844,1.183,3.457,3.457,0,0,0,3.985-.655l2.591-2.586a1.161,1.161,0,0,1,1.64,0l4.923,4.924a1.16,1.16,0,0,1,0,1.639l-2.587,2.591a3.452,3.452,0,0,0-.654,3.986,21.873,21.873,0,0,1,1.182,2.843,3.45,3.45,0,0,0,3.283,2.344h3.649a1.16,1.16,0,0,1,1.16,1.16V34.8a1.16,1.16,0,0,1-1.16,1.16H142.9a3.45,3.45,0,0,0-3.282,2.344,21.9,21.9,0,0,1-1.183,2.844,3.452,3.452,0,0,0,.655,3.985l2.587,2.591a1.161,1.161,0,0,1,0,1.64l-4.926,4.923a1.16,1.16,0,0,1-1.639,0l-3.812-3.8a1.16,1.16,0,0,0-1.667,1.614l.029.028,3.811,3.8a3.481,3.481,0,0,0,4.92,0l4.923-4.922a3.48,3.48,0,0,0,0-4.921L140.733,43.5a1.136,1.136,0,0,1-.224-1.309,24.034,24.034,0,0,0,1.31-3.146,1.132,1.132,0,0,1,1.081-.766h3.648a3.48,3.48,0,0,0,3.48-3.48v-6.96A3.48,3.48,0,0,0,146.548,24.361Z" transform="translate(-80.426 0)"/><path class="d" d="M222.416,123.931a15.1,15.1,0,0,0-21.326,0,1.16,1.16,0,0,0,1.64,1.64A12.761,12.761,0,1,1,220.9,143.5c-.041.041-.08.081-.121.121a1.16,1.16,0,1,0,1.612,1.668l.028-.028A15.1,15.1,0,0,0,222.416,123.931Z" transform="translate(-173.471 -103.273)"/></g></svg>